HIERARCHY
ROOT hips
{
  OFFSET 0 10.6860622 2.3727825e-15
  CHANNELS 6 Xposition Yposition Zposition Yrotation Xrotation Zrotation
  JOINT leftUpperLeg
  {
    OFFSET 0.6642549969 -0.9402397400000004 0
    CHANNELS 3 Yrotation Xrotation Zrotation
    JOINT leftLowerLeg
    {
      OFFSET 0 -3.997221335632195 0
      CHANNELS 3 Yrotation Xrotation Zrotation
      JOINT leftFoot
      {
        OFFSET -0.13777839790000004 -4.6145792000000005 -0.22186036399999998
        CHANNELS 3 Yrotation Xrotation Zrotation
        JOINT leftToes
        {
          OFFSET -0.03777410834999995 -0.9130806927000008 0.85230013
          CHANNELS 3 Yrotation Xrotation Zrotation
          End Site
          {
            OFFSET -0.03777410834999995 -0.9130806927000008 0.85230013
          }
        }
      }
    }
  }
  JOINT rightUpperLeg
  {
    OFFSET -0.6642778626 -0.9402397400000004 0
    CHANNELS 3 Yrotation Xrotation Zrotation
    JOINT rightLowerLeg
    {
      OFFSET 0 -3.997221452859387 0
      CHANNELS 3 Yrotation Xrotation Zrotation
      JOINT rightFoot
      {
        OFFSET 0.1377926176 -4.6145792000000005 -0.22185782299999995
        CHANNELS 3 Yrotation Xrotation Zrotation
        JOINT rightToes
        {
          OFFSET 0.037780746850000047 -0.9130806927000008 0.85230167
          CHANNELS 3 Yrotation Xrotation Zrotation
          End Site
          {
            OFFSET 0.037780746850000047 -0.9130806927000008 0.85230167
          }
        }
      }
    }
  }
  JOINT spine
  {
    OFFSET 0 0.13988381660000015 0
    CHANNELS 3 Yrotation Xrotation Zrotation
    JOINT chest
    {
      OFFSET 0 0.6191039003973773 0
      CHANNELS 3 Yrotation Xrotation Zrotation
      JOINT upperChest
      {
        OFFSET 0 0.9855186130586943 0
        CHANNELS 3 Yrotation Xrotation Zrotation
        JOINT leftShoulder
        {
          OFFSET 0.1807663869 1.5087829790000005 0
          CHANNELS 3 Yrotation Xrotation Zrotation
          JOINT leftUpperArm
          {
            OFFSET 0.5985063006419806 0 0
            CHANNELS 3 Yrotation Xrotation Zrotation
            JOINT leftLowerArm
            {
              OFFSET 2.2993332369501065 0 0
              CHANNELS 3 Yrotation Xrotation Zrotation
              JOINT leftHand
              {
                OFFSET 2.395047042602395 0 0
                CHANNELS 3 Yrotation Xrotation Zrotation
                JOINT leftIndexProximal
                {
                  OFFSET 0.5766295810000004 0.04556643899499946 0.17265095988184
                  CHANNELS 3 Yrotation Xrotation Zrotation
                  JOINT leftIndexIntermediate
                  {
                    OFFSET 0.2957229000000008 -0.019352197700001517 -0.007932640616999987
                    CHANNELS 3 Yrotation Xrotation Zrotation
                    JOINT leftIndexDistal
                    {
                      OFFSET 0.19008243099999922 -0.012484908149998475 -0.002786250786000012
                      CHANNELS 3 Yrotation Xrotation Zrotation
                      End Site
                      {
                        OFFSET 0.19008243099999922 -0.012484908149998475 -0.002786250786000012
                      }
                    }
                  }
                }
                JOINT leftMiddleProximal
                {
                  OFFSET 0.5834975091000001 0.0524350405149987 0.02204081888183999
                  CHANNELS 3 Yrotation Xrotation Zrotation
                  JOINT leftMiddleIntermediate
                  {
                    OFFSET 0.33880573540000003 -0.019871473270000717 -0.00000971183179999946
                    CHANNELS 3 Yrotation Xrotation Zrotation
                    JOINT leftMiddleDistal
                    {
                      OFFSET 0.20676022730000088 -0.012221336379999448 0.0001471936708000235
                      CHANNELS 3 Yrotation Xrotation Zrotation
                      End Site
                      {
                        OFFSET 0.20676022730000088 -0.012221336379999448 0.0001471936708000235
                      }
                    }
                  }
                }
                JOINT leftLittleProximal
                {
                  OFFSET 0.5344154683999995 -0.012880921405001189 -0.24414037221816004
                  CHANNELS 3 Yrotation Xrotation Zrotation
                  JOINT leftLittleIntermediate
                  {
                    OFFSET 0.21758961730000093 -0.011650919939999227 0.011893592810000034
                    CHANNELS 3 Yrotation Xrotation Zrotation
                    JOINT leftLittleDistal
                    {
                      OFFSET 0.1475273964999999 -0.008152365682999818 0.006001092492999946
                      CHANNELS 3 Yrotation Xrotation Zrotation
                      End Site
                      {
                        OFFSET 0.1475273964999999 -0.008152365682999818 0.006001092492999946
                      }
                    }
                  }
                }
                JOINT leftRingProximal
                {
                  OFFSET 0.5799399463000003 0.026911854694997794 -0.12150566991816003
                  CHANNELS 3 Yrotation Xrotation Zrotation
                  JOINT leftRingIntermediate
                  {
                    OFFSET 0.26167887460000006 -0.013480186499999602 0.010996293000000053
                    CHANNELS 3 Yrotation Xrotation Zrotation
                    JOINT leftRingDistal
                    {
                      OFFSET 0.17667108799999987 -0.008990287899999228 0.0055541023999999065
                      CHANNELS 3 Yrotation Xrotation Zrotation
                      End Site
                      {
                        OFFSET 0.17667108799999987 -0.008990287899999228 0.0055541023999999065
                      }
                    }
                  }
                }
                JOINT leftThumbProximal
                {
                  OFFSET 0.11018806699999972 -0.09448718900500053 0.17047963138184
                  CHANNELS 3 Yrotation Xrotation Zrotation
                  JOINT leftThumbIntermediate
                  {
                    OFFSET 0.31062601459999983 -0.08126270900000132 0.15443142000000007
                    CHANNELS 3 Yrotation Xrotation Zrotation
                    JOINT leftThumbDistal
                    {
                      OFFSET 0.21627175790000086 -0.08833193599999878 0.018771167799999988
                      CHANNELS 3 Yrotation Xrotation Zrotation
                      End Site
                      {
                        OFFSET 0.21627175790000086 -0.08833193599999878 0.018771167799999988
                      }
                    }
                  }
                }
              }
            }
          }
        }
        JOINT neck
        {
          OFFSET 0 1.5463305265074576 0
          CHANNELS 3 Yrotation Xrotation Zrotation
          JOINT head
          {
            OFFSET 0 0.8456443600000344 0
            CHANNELS 3 Yrotation Xrotation Zrotation
            JOINT leftEye
            {
              OFFSET 0.30408573140000006 0.5104519199999995 0.1276382305
              CHANNELS 3 Yrotation Xrotation Zrotation
              End Site
              {
                OFFSET 0.30408573140000006 0.5104519199999995 0.1276382305
              }
            }
            JOINT rightEye
            {
              OFFSET -0.30409491089999996 0.5104519199999995 0.1276379445
              CHANNELS 3 Yrotation Xrotation Zrotation
              End Site
              {
                OFFSET -0.30409491089999996 0.5104519199999995 0.1276379445
              }
            }
            JOINT jaw
            {
              OFFSET -3.155239131000001e-7 -0.11984121820000082 0.60178107
              CHANNELS 3 Yrotation Xrotation Zrotation
              End Site
              {
                OFFSET -3.155239131000001e-7 -0.11984121820000082 0.60178107
              }
            }
          }
        }
        JOINT rightShoulder
        {
          OFFSET -0.1807303465 1.5087829790000005 0
          CHANNELS 3 Yrotation Xrotation Zrotation
          JOINT rightUpperArm
          {
            OFFSET -0.5985063796536958 0 0
            CHANNELS 3 Yrotation Xrotation Zrotation
            JOINT rightLowerArm
            {
              OFFSET -2.2993322059002854 0 0
              CHANNELS 3 Yrotation Xrotation Zrotation
              JOINT rightHand
              {
                OFFSET -2.395045314457259 0 0
                CHANNELS 3 Yrotation Xrotation Zrotation
                JOINT rightIndexProximal
                {
                  OFFSET -0.5764487688300002 0.0441371204405987 0.17361932004999997
                  CHANNELS 3 Yrotation Xrotation Zrotation
                  JOINT rightIndexIntermediate
                  {
                    OFFSET -0.29573011380000047 -0.01934826376999843 -0.007698921482999974
                    CHANNELS 3 Yrotation Xrotation Zrotation
                    JOINT rightIndexDistal
                    {
                      OFFSET -0.19008373999999884 -0.012503266380000655 -0.0026365778999999897
                      CHANNELS 3 Yrotation Xrotation Zrotation
                      End Site
                      {
                        OFFSET -0.19008373999999884 -0.012503266380000655 -0.0026365778999999897
                      }
                    }
                  }
                }
                JOINT rightMiddleProximal
                {
                  OFFSET -0.5834852037300005 0.05211639405060153 0.02307162440000001
                  CHANNELS 3 Yrotation Xrotation Zrotation
                  JOINT rightMiddleIntermediate
                  {
                    OFFSET -0.33880114510000003 -0.019952774050000954 0.0002455003561999819
                    CHANNELS 3 Yrotation Xrotation Zrotation
                    JOINT rightMiddleDistal
                    {
                      OFFSET -0.20675694929999955 -0.012273788999999091 0.00030209124000002766
                      CHANNELS 3 Yrotation Xrotation Zrotation
                      End Site
                      {
                        OFFSET -0.20675694929999955 -0.012273788999999091 0.00030209124000002766
                      }
                    }
                  }
                }
                JOINT rightLittleProximal
                {
                  OFFSET -0.5346811737299992 -0.011214256288399227 -0.24363941305000003
                  CHANNELS 3 Yrotation Xrotation Zrotation
                  JOINT rightLittleIntermediate
                  {
                    OFFSET -0.21757715980000092 -0.011771559690000988 0.01201554387
                    CHANNELS 3 Yrotation Xrotation Zrotation
                    JOINT rightLittleDistal
                    {
                      OFFSET -0.1475201849000004 -0.00822055339600003 0.006082065407000015
                      CHANNELS 3 Yrotation Xrotation Zrotation
                      End Site
                      {
                        OFFSET -0.1475201849000004 -0.00822055339600003 0.006082065407000015
                      }
                    }
                  }
                }
                JOINT rightRingProximal
                {
                  OFFSET -0.5800810755299999 0.027657985680600072 -0.12066365025000003
                  CHANNELS 3 Yrotation Xrotation Zrotation
                  JOINT rightRingIntermediate
                  {
                    OFFSET -0.26166445029999974 -0.013623118409999302 0.011164098990000045
                    CHANNELS 3 Yrotation Xrotation Zrotation
                    JOINT rightRingDistal
                    {
                      OFFSET -0.17666387530000027 -0.009072900100000503 0.005668185599999959
                      CHANNELS 3 Yrotation Xrotation Zrotation
                      End Site
                      {
                        OFFSET -0.17666387530000027 -0.009072900100000503 0.005668185599999959
                      }
                    }
                  }
                }
                JOINT rightThumbProximal
                {
                  OFFSET -0.10997596379000074 -0.09577489355940072 0.16989765924999997
                  CHANNELS 3 Yrotation Xrotation Zrotation
                  JOINT rightThumbIntermediate
                  {
                    OFFSET -0.31036620999999986 -0.08229339117999834 0.15440884469999996
                    CHANNELS 3 Yrotation Xrotation Zrotation
                    JOINT rightThumbDistal
                    {
                      OFFSET -0.21631306399999906 -0.08825326400000111 0.018656797720000014
                      CHANNELS 3 Yrotation Xrotation Zrotation
                      End Site
                      {
                        OFFSET -0.21631306399999906 -0.08825326400000111 0.018656797720000014
                      }
                    }
                  }
                }
              }
            }
          }
        }
      }
    }
  }
}
MOTION
Frames: 4
Frame Time: 0.03333333333333333
0.03824618086218834 -3.377322060992432 -0.6153559684753418 2.2403005866384786 5.867976243795493 -3.2457251910179794 -49.62437720100665 -75.17602369536168 66.30052492249719 8.799876239905524 88.15920616357003 6.5007231217477806 3.0132512508086315 18.174246326421635 -12.206836501599996 -0.3278763576974679 -28.82444986002311 1.3227269380921813 -18.227799816108686 -78.80173150732337 7.1635916542657405 3.895618627371172 63.67695168625284 5.671024504401554 -1.063488260573563 9.812983391672727 0.9352675497143782 0.00018240735152285744 0.08703431260985818 0.0036746838661961116 -1.1753084375140257 10.369133562664215 0.09497168791955755 -7.0798171769214635 41.35412862567879 -2.955625740450184 0 0 0 -9.16345600097089 7.269847600949496 -16.13414990612632 -5.846592272814088 -28.080973325772565 -48.40340532637011 -103.36895743390075 2.0888859071592107 0.6569008779470886 -50.65353487427835 67.02954470810201 2.4460989381403673 -10.652130901302238 -3.715676596076901 17.612824243263713 1.4902887705637176 0.6151183757069004 -21.084522451447967 -1.281281483810888e-10 1.793762613445802e-24 1.6042536111691759e-12 -4.61448824235243 -3.159120468153683 -2.674373212763643 -2.0771162116295474 -0.7982857767796133 -38.0033274016123 1.1399788815851744e-10 6.3611093629270335e-15 -1.4408050536242611e-12 -6.275305958643591 0.8018809945990754 -25.85237997309594 -8.11048292062685 -3.5498568304295253 -46.7548658371188 4.171116073730225e-11 5.950788745874541e-26 -1.634838641478621e-13 2.9979026442653254 0.018948110704128912 -15.43167153317763 -3.7783328678297217 -2.4506766921323004 -52.461768270608275 3.7224967725249465e-7 -0.000004029587113018112 -0.0000014151723861880957 -54.86429126696536 -9.445885555758135 16.47207308339431 -2.467436868266173 2.699847522477156 15.377561282627404 -0.000006883578520673388 0.0000064384958714371726 0.000005734643700428005 9.024818752719241 -11.489051382621453 -2.2181171457568043 2.8984863514349484 -42.27236550735651 5.718642519893751 0 0 0 0 0 0 0 0 0 1.1558063918231898 0.19985787690372042 0.07629099858278633 26.379378329014557 -22.807058485322155 50.94763755525065 73.46932762678439 2.026520639953005 -1.447257207901159 0.36479944102247874 59.26862039155401 -18.706489136041874 -0.5942561252690512 0.49228361700252177 33.55342546717648 -0.8873119377462632 0.09371064406924749 16.890945426568248 3.933694872703174e-10 3.1805546814635168e-15 -4.874754472204794e-12 -0.9560100352740131 -0.7189178321041688 30.902243157049888 1.0497908844443051 -0.19079561728849656 16.705855424908034 1.215836204053751e-9 -3.180554491887685e-15 -1.6036856771618462e-11 -18.32910650269305 -7.911469882394063 45.97027004775481 2.302889956372148 -0.4498706564676343 20.617045535065714 1.6628260911929426e-9 -3.1805543023118527e-15 -2.179830267765673e-11 -14.03203944528734 -6.39606184923778 35.2531806444374 0.32215488802126735 -0.22887653921299592 18.848877560918396 9.319827352578769e-8 0.0000017120387446021636 0.000001695952058800944 3.0716288333192914 -29.03365501024058 0.4215746768509844 -22.051338272675157 5.687051329791138 -7.45252742544474 -0.00001537236639930789 0.000009634301338042777 -0.000010855907914316072
0.04030190780758858 -3.3760865759155276 -0.6138535737991333 2.303071983334452 5.929536988296134 -3.2293623975553367 -49.61070491374141 -75.2849208120304 66.28800447686194 8.869271761865198 88.14649224290574 6.569342493687479 2.979420605636394 18.12897339399363 -12.123868572903708 -0.3285839495825128 -28.857680281676522 1.3244188125152443 -18.223302890777966 -78.84872813211574 7.094386550462665 3.880549179152502 63.67878470504439 5.654072911707464 -1.054907681491595 9.817140646876165 0.9311596853520949 0.0003283160349140374 0.1539200188655965 0.006500420194417197 -1.1849136764428279 10.380978679688175 0.09025138727528428 -7.124379363112823 41.400027280759936 -2.983108424008652 0 0 0 -9.141508196959071 7.273653599774358 -16.00482539527895 -5.313514140741791 -28.216663031641392 -48.89558133855261 -103.48586902052001 2.0825375228347083 0.654685616611523 -49.96206893476262 66.52887957738612 2.912439117868936 -10.704237387529707 -3.729034744889781 17.53694857328251 1.4855176773500869 0.6159095493647467 -21.033531860194767 -1.281281483810888e-10 1.793762613445802e-24 1.6042536111691759e-12 -4.568714101019601 -3.1760638795255534 -2.834825795919545 -2.0792570393827665 -0.8005725652759739 -38.02997098400378 1.1399788815851744e-10 6.3611093629270335e-15 -1.4408050536242611e-12 -6.375060782712208 0.6619747304042978 -26.253698074823127 -8.150155884883317 -3.596120544537226 -47.04544717783392 4.171116073730225e-11 5.950788745874541e-26 -1.634838641478621e-13 2.9353156708631762 -0.041158710138165265 -15.831610595437096 -3.7757812251355953 -2.446448573208978 -52.40046296409019 3.7224967725249465e-7 -0.000004029587113018112 -0.0000014151723861880957 -54.7292689866504 -9.72373971994426 16.26669039497265 -2.4352244093692286 2.6757858290410996 15.274290696879484 -0.000006883578520673388 0.0000064384958714371726 0.000005734643700428005 9.000364078818205 -11.37244376833826 -2.196433159519355 2.7302735578856634 -42.30329078627166 5.755232973172307 0 0 0 0 0 0 0 0 0 1.221376458885036 0.21370558869364714 0.20270697675550706 26.397828132813505 -22.65584582940041 50.667224971997854 73.69502891583991 2.0880663804132222 -1.4428678731288826 0.0307762271295361 59.05266896748866 -18.968055861797215 -0.5900330806981688 0.48996713727724617 33.55773155044061 -0.8891632826069827 0.09332295694627692 16.93114192897548 3.933694872703174e-10 3.1805546814635168e-15 -4.874754472204794e-12 -0.9529886552753025 -0.7185542560076816 30.8866557024942 1.0505377452960973 -0.19111294270275794 16.716470752031785 1.215836204053751e-9 -3.180554491887685e-15 -1.6036856771618462e-11 -18.318237646842235 -7.922742985052957 45.93887723127207 2.3006263007550465 -0.44905421029740256 20.597470088541826 1.6628260911929426e-9 -3.1805543023118527e-15 -2.179830267765673e-11 -14.035475838053815 -6.398734152650616 35.21071406789035 0.3239662849035736 -0.2294993453901656 18.87363517805906 9.319827352578769e-8 0.0000017120387446021636 0.000001695952058800944 3.0778060324168988 -29.034901010935553 0.4128741454698857 -22.05175791542609 5.68772528660491 -7.454243347257855 -0.00001537236639930789 0.000009634301338042777 -0.000010855907914316072
0.043175116181373596 -3.3751519750854495 -0.6124030947685242 2.375829975986518 5.974782041598454 -3.203306503969121 -49.585062018080954 -75.37912622333631 66.2262301646533 8.86639937420118 88.14090459946935 6.565926261647795 2.963199966416753 18.099035075572043 -12.055534168367139 -0.32924457461656936 -28.890695095585887 1.3260752688180766 -18.118188396125046 -78.88838743334362 6.911649685067425 3.863782163151266 63.68336006748455 5.63541257553248 -1.0450149373954936 9.819524290481441 0.9399312090294426 0.0004514123323518657 0.21527588953568258 0.009093344893094718 -1.1935449999688312 10.387021624112036 0.093231363979427 -7.147852015063648 41.424630647463026 -2.9674597509172016 0 0 0 -9.162343153436506 7.27676159787302 -15.959414317523343 -5.1554922439999595 -28.220817813695525 -48.99385713049829 -103.51352501841075 2.0873946550045197 0.6553280259444778 -49.85793135810209 65.93324023237228 2.408824812161009 -10.727833967362068 -3.7462860768132327 17.46862794093351 1.4803645911201602 0.6166109649869498 -20.97772471392642 -1.281281483810888e-10 1.793762613445802e-24 1.6042536111691759e-12 -4.524349702363587 -3.2018145070544786 -3.0383574602427106 -2.0817651036513136 -0.8033878394914827 -38.075045957639325 1.1399788815851744e-10 6.3611093629270335e-15 -1.4408050536242611e-12 -6.507622579559611 0.494995356108552 -26.670715240654822 -8.195721006373928 -3.649957828866412 -47.381530615804614 4.171116073730225e-11 5.950788745874541e-26 -1.634838641478621e-13 2.933948741578074 -0.046198107216059436 -16.377749514932265 -3.774023459149786 -2.4409482571549255 -52.37292593057472 3.7224967725249465e-7 -0.000004029587113018112 -0.0000014151723861880957 -54.60993626949385 -10.036907111108851 16.046824894656538 -2.4052823564769215 2.654001928353914 15.180364717297312 -0.000006883578520673388 0.0000064384958714371726 0.000005734643700428005 8.979031399660055 -11.231912544411509 -2.2011136767781987 2.5503044411042883 -42.22838809632929 5.799652671395117 0 0 0 0 0 0 0 0 0 1.2958224623259351 0.22897971324561564 0.3378847560121129 26.412827067854586 -22.48982914592455 50.3719499674651 73.91368734518545 2.159025713311962 -1.4484178412858053 -0.3469259622541147 58.85570554552 -19.215666432412423 -0.6011167698873867 0.49015812275569437 33.558876726073 -0.8912877484179172 0.09275989915429134 16.976584103707427 3.933694872703174e-10 3.1805546814635168e-15 -4.874754472204794e-12 -0.9226873770693296 -0.7235082963371263 30.858586790715314 1.0505249407730266 -0.19110361784184415 16.716310796443157 1.215836204053751e-9 -3.180554491887685e-15 -1.6036856771618462e-11 -18.307829263668015 -7.932788874311083 45.91035280754249 2.3051562478680614 -0.4507125032810428 20.636672555733533 1.6628260911929426e-9 -3.1805543023118527e-15 -2.179830267765673e-11 -14.024722183424512 -6.406227931298131 35.13252803018299 0.3273135866496849 -0.23065232263439775 18.919481397257442 9.319827352578769e-8 0.0000017120387446021636 0.000001695952058800944 3.067410056391408 -29.029776489931542 0.4133572430604412 -22.052216253086442 5.687988262965995 -7.4554503344109015 -0.00001537236639930789 0.000009634301338042777 -0.000010855907914316072
0.04618905484676361 -3.37461314909668 -0.6113091707229614 2.4363232761931117 5.996690217921824 -3.1845077275509266 -49.60075331621095 -75.43030051747104 66.18277753583725 8.692180769211499 88.14248430321749 6.39124604104115 2.9683278710386207 18.1123381673232 -12.021407345182883 -0.32976796234666983 -28.917298268990024 1.3274201024038386 -17.920350702934666 -78.91016919168013 6.657818574235676 3.8523612626591848 63.687188842476424 5.62350035312211 -1.0479239585841313 9.820899377314236 0.9622183322848514 0.00031799198219946174 0.15302455384058963 0.006462648526149944 -1.200456698763013 10.391497054398654 0.09797564645493426 -7.16233888517709 41.44351184423152 -2.9429958444812745 0 0 0 -9.199730005072782 7.281997302173786 -15.886966459147095 -5.261357828654603 -28.122260840375883 -48.87364891033931 -103.51531968716496 2.0992638397108414 0.6575932763842736 -49.92980262947655 65.26607307163611 1.5376157086819096 -10.732485458518886 -3.7413578235674625 17.48058859131458 1.4727006950581487 0.6162106820646386 -20.881475714996586 -1.281281483810888e-10 1.793762613445802e-24 1.6042536111691759e-12 -4.48474951349752 -3.2117368063450624 -3.1561999187917804 -2.0832092256863484 -0.8045823864251893 -38.09171326524312 1.1399788815851744e-10 6.3611093629270335e-15 -1.4408050536242611e-12 -6.610289174187739 0.343657452415096 -27.098023898413278 -8.242630283303573 -3.7059004553229147 -47.72916047748327 4.171116073730225e-11 5.950788745874541e-26 -1.634838641478621e-13 2.912579742602942 -0.06982721562512373 -16.748624962808638 -3.769396513396244 -2.4334338012991257 -52.3038887053682 3.7224967725249465e-7 -0.000004029587113018112 -0.0000014151723861880957 -54.62616363166338 -10.535716590285205 15.777833868849115 -2.3734404580361996 2.630159500211979 15.078673086098497 -0.000006883578520673388 0.0000064384958714371726 0.000005734643700428005 8.964825299932096 -11.095488418079436 -2.2050624583114278 2.435852627124657 -42.09403886625616 5.806659331557304 0 0 0 0 0 0 0 0 0 1.3344317127009993 0.23818987300305658 0.4717477974168763 26.50133393449804 -22.344446944093935 50.066780272879164 74.06913404522132 2.2146558595555885 -1.4468959328490083 -0.7174406679043589 58.692839777689144 -19.447696077935326 -0.608135676667605 0.4884097440216122 33.539529908282134 -0.8873657719955028 0.09524691178274719 16.9031472579409 3.933694872703174e-10 3.1805546814635168e-15 -4.874754472204794e-12 -0.9065733528686475 -0.7258874735509006 30.83928686322956 1.0502890615220877 -0.19100578017413541 16.71298900864195 1.215836204053751e-9 -3.180554491887685e-15 -1.6036856771618462e-11 -18.316575249459397 -7.934638779072945 45.90742829403106 2.3072959289752624 -0.45150504323258484 20.65527751109846 1.6628260911929426e-9 -3.1805543023118527e-15 -2.179830267765673e-11 -14.012168117901993 -6.408124482576323 35.1192778136708 0.32656919654830074 -0.23037508407947016 18.909190664709325 9.319827352578769e-8 0.0000017120387446021636 0.000001695952058800944 3.0765744458499293 -29.032016483631736 0.4117449802150591 -22.055282588645838 5.689225068573494 -7.4568537144965825 -0.00001537236639930789 0.000009634301338042777 -0.000010855907914316072
